<svg width="46" height="40" viewBox="0 0 46 40" fill="none" xmlns="http://www.w3.org/2000/svg">
<path d="M23.0007 0.166992C22.7251 0.167028 22.4524 0.22171 22.1981 0.327874C21.9439 0.434038 21.7132 0.589575 21.5195 0.785482L0.507161 19.1204C0.37593 19.2173 0.26927 19.3436 0.195768 19.4892C0.122267 19.6348 0.0839781 19.7956 0.0839844 19.9587C0.0839844 20.2349 0.193731 20.4999 0.389081 20.6952C0.584432 20.8906 0.849384 21.0003 1.12565 21.0003H6.33398V37.667C6.33398 38.817 7.26732 39.7503 8.41732 39.7503H16.7507C17.9007 39.7503 18.834 38.817 18.834 37.667V25.167H27.1673V37.667C27.1673 38.817 28.1007 39.7503 29.2506 39.7503H37.584C38.734 39.7503 39.6673 38.817 39.6673 37.667V21.0003H44.8756C45.1519 21.0003 45.4169 20.8906 45.6122 20.6952C45.8076 20.4999 45.9173 20.2349 45.9173 19.9587C45.9173 19.7956 45.879 19.6348 45.8055 19.4892C45.732 19.3436 45.6254 19.2173 45.4941 19.1204L24.494 0.797689C24.4899 0.793603 24.4859 0.789534 24.4818 0.785482C24.2881 0.589575 24.0574 0.434038 23.8032 0.327874C23.5489 0.22171 23.2762 0.167028 23.0007 0.166992Z" fill="black"/>
</svg>
