<svg width="20" height="18" viewBox="0 0 20 18" fill="none" xmlns="http://www.w3.org/2000/svg">
<line x1="0.75" y1="16.25" x2="19.25" y2="16.25" stroke="black" stroke-width="1.5" stroke-linecap="round"/>
<line x1="4.75" y1="16.75" x2="4.75" y2="17.25" stroke="black" stroke-width="1.5" stroke-linecap="round"/>
<line x1="15.75" y1="16.75" x2="15.75" y2="17.25" stroke="black" stroke-width="1.5" stroke-linecap="round"/>
<rect x="14" y="3" width="3" height="12" rx="1" fill="black"/>
<rect x="2" width="5" height="15" rx="1" fill="black"/>
<rect x="3" y="2" width="3" height="1" fill="white"/>
<rect x="3" y="10" width="3" height="1" fill="white"/>
<rect x="3" y="12" width="3" height="1" fill="white"/>
<rect x="8" width="5" height="15" rx="1" fill="black"/>
<rect x="9" y="2" width="3" height="1" fill="white"/>
<rect x="9" y="10" width="3" height="1" fill="white"/>
<rect x="9" y="12" width="3" height="1" fill="white"/>
<rect x="15" y="5" width="1" height="1" fill="white"/>
<rect x="15" y="10" width="1" height="1" fill="white"/>
<rect x="15" y="12" width="1" height="1" fill="white"/>
</svg>
