<svg width="26" height="22" viewBox="0 0 26 22" fill="none" xmlns="http://www.w3.org/2000/svg">
<path d="M25.6236 16.298C22.2418 16.298 22.7002 16.298 19.094 16.298C15.4878 16.298 15.5821 16.298 12.5645 16.298C12.5645 11.7901 15.4878 8.13574 19.094 8.13574C22.7002 8.13574 25.6236 11.7901 25.6236 16.298Z" fill="black"/>
<path d="M13.6764 16.298C10.2945 16.298 10.753 16.298 7.14678 16.298C3.54058 16.298 3.63485 16.298 0.617188 16.298C0.617188 11.7901 3.54058 8.13574 7.14678 8.13574C10.753 8.13574 13.6764 11.7901 13.6764 16.298Z" fill="black"/>
<circle cx="19.0104" cy="3.96551" r="3.58074" fill="black"/>
<circle cx="7.14715" cy="3.96551" r="3.58074" fill="black"/>
<path d="M20.0757 19.2408C16.4104 19.2408 16.9073 19.2408 12.9988 19.2408C9.09032 19.2408 9.19248 19.2408 5.92188 19.2408C5.92188 14.8438 9.09032 11.2793 12.9988 11.2793C16.9073 11.2793 20.0757 14.8438 20.0757 19.2408Z" fill="white"/>
<path d="M20.0757 21.0114C16.4104 21.0114 16.9073 21.0114 12.9988 21.0114C9.09032 21.0114 9.19248 21.0114 5.92188 21.0114C5.92188 16.9768 9.09032 12.165 12.9988 12.165C16.9073 12.165 20.0757 16.9768 20.0757 21.0114Z" fill="black"/>
<circle cx="12.9431" cy="7.93236" r="4.21264" fill="white"/>
<circle cx="12.985" cy="7.97527" r="3.58074" fill="black"/>
</svg>
